<svg width="213" height="69" viewBox="0 0 213 69" fill="none" xmlns="http://www.w3.org/2000/svg">
<path d="M19.248 23.456C15.536 24.384 12.32 26.56 9.6 29.984C6.912 33.408 5.568 36.88 5.568 40.4C5.568 43.888 6.256 46.592 7.632 48.512C9.008 50.4 11.2 51.904 14.208 53.024C15.872 52.32 17.52 51.392 19.152 50.24C20.816 49.088 22.08 47.984 22.944 46.928C23.68 46.736 24.256 46.88 24.672 47.36C25.12 47.84 25.312 48.368 25.248 48.944C24.352 50.096 22.88 51.344 20.832 52.688C18.816 54.032 16.784 55.136 14.736 56C10.224 54.816 6.992 52.96 5.04 50.432C3.088 47.872 2.08 44.64 2.016 40.736C2.016 37.664 3.072 34.192 5.184 30.32C9.76 24.592 14.928 21.248 20.688 20.288C22.544 20.992 24.032 22.208 25.152 23.936C26.304 25.664 26.944 27.44 27.072 29.264C25.504 30.48 23.968 30.816 22.464 30.272C22.176 27.232 21.344 24.944 19.968 23.408L19.248 23.456ZM29.1878 44.96C29.1878 42.88 29.8598 40.608 31.2038 38.144C32.5478 35.68 34.1798 33.616 36.0998 31.952C38.0518 30.288 39.8278 29.456 41.4278 29.456C43.0278 29.456 44.7558 30.944 46.6118 33.92C48.4678 36.896 49.4118 39.424 49.4438 41.504C49.5078 43.584 48.8358 45.76 47.4278 48.032C46.0518 50.272 44.3558 52.16 42.3398 53.696C40.3558 55.232 38.5638 56 36.9638 56C35.3638 56 33.6678 54.88 31.8758 52.64C30.0838 50.4 29.1878 47.84 29.1878 44.96ZM41.0438 32.144C38.4838 33.584 36.5478 35.28 35.2358 37.232C33.9238 39.152 32.9798 41.424 32.4038 44.048C32.5318 46.192 32.9478 48.016 33.6518 49.52C34.3558 51.024 35.4438 52.4 36.9158 53.648C39.7638 52.432 41.9238 50.896 43.3958 49.04C44.8998 47.184 45.9238 44.848 46.4678 42.032C46.1798 40.336 45.5558 38.576 44.5958 36.752C43.6358 34.928 42.4518 33.392 41.0438 32.144ZM67.3658 44.672V44.576C68.4218 38.88 69.4938 33.952 70.5818 29.792C72.8538 29.792 74.3738 30.304 75.1418 31.328L71.5418 38.384C70.8378 42.96 70.2778 48.832 69.8618 56C67.9098 56.224 66.4858 55.824 65.5898 54.8L67.9418 48.512L67.3658 48.032C65.4458 50.528 63.0778 53.184 60.2618 56C55.8778 55.392 53.2698 53.888 52.4378 51.488L54.8858 43.184C55.3658 37.744 55.5738 33.28 55.5098 29.792C56.5018 29.664 57.3018 29.712 57.9098 29.936C58.5178 30.128 59.2058 30.576 59.9738 31.28C59.4618 35.824 58.2618 42.288 56.3738 50.672C56.7898 51.664 57.9098 52.432 59.7338 52.976C62.9338 50.096 65.4778 47.328 67.3658 44.672ZM82.4366 37.376L83.0126 37.76C84.7726 35.456 86.8686 32.896 89.3006 30.08C90.6126 30.272 91.6846 30.912 92.5166 32C93.3486 33.056 93.7646 34.304 93.7646 35.744C92.1326 36.96 90.6926 37.232 89.4446 36.56C89.5406 35.088 89.2366 34.208 88.5326 33.92C86.9646 35.712 85.1246 37.984 83.0126 40.736C82.1486 46.432 81.2846 51.52 80.4206 56C78.3406 56.192 76.9806 55.808 76.3406 54.848C78.2606 48.224 79.6526 42.656 80.5166 38.144L79.5566 31.28C80.2606 30.576 80.9646 30.112 81.6686 29.888C82.3726 29.664 83.2366 29.632 84.2606 29.792C84.4206 30.56 84.2446 32.304 83.7326 35.024L82.4366 37.376ZM108.877 48.176L102.589 55.376C100.125 55.344 98.2368 54.624 96.9248 53.216C95.6128 51.808 94.9408 49.856 94.9088 47.36C94.8768 44.832 95.4528 42.208 96.6367 39.488C97.8208 36.736 99.4048 34.48 101.389 32.72C103.373 30.96 105.389 30.08 107.437 30.08C109.325 30.912 110.909 32.464 112.189 34.736L112.237 34.592C112.333 32.48 112.589 30.88 113.005 29.792C115.277 29.792 116.797 30.304 117.565 31.328L113.965 38.384C113.389 42.096 112.781 47.968 112.141 56C109.965 56.256 108.333 55.792 107.245 54.608L109.405 48.608L108.877 48.176ZM98.5568 47.312C98.5568 49.744 99.4528 51.488 101.245 52.544C104.157 49.664 106.973 46.944 109.693 44.384L111.325 37.328C110.813 36.24 110.269 35.36 109.693 34.688C109.117 34.016 108.301 33.328 107.245 32.624C104.525 33.744 102.397 35.632 100.861 38.288C99.3248 40.912 98.5568 43.92 98.5568 47.312ZM132.924 48.176L126.636 55.376C124.172 55.344 122.284 54.624 120.972 53.216C119.66 51.808 118.988 49.856 118.956 47.36C118.924 44.832 119.5 42.208 120.684 39.488C121.868 36.736 123.452 34.48 125.436 32.72C127.42 30.96 129.388 30.08 131.34 30.08C133.292 30.08 134.94 31.584 136.284 34.592C136.38 32.48 136.636 30.88 137.052 29.792C139.324 29.792 140.828 30.304 141.564 31.328L137.58 39.872C136.844 42.848 136.172 46.256 135.564 50.096C134.956 53.936 134.412 57.424 133.932 60.56C133.452 63.696 133.116 65.84 132.924 66.992C132.476 67.536 131.628 68 130.38 68.384C129.164 68.8 128.044 68.992 127.02 68.96C124.812 67.872 123.052 66.48 121.74 64.784C120.46 63.12 119.708 61.488 119.484 59.888C120.06 59.024 120.7 58.432 121.404 58.112C122.108 57.792 122.764 57.824 123.372 58.208C123.628 61.376 125.1 64 127.788 66.08C128.236 66.112 128.668 66 129.084 65.744C129.98 62.672 130.844 58.624 131.676 53.6L133.452 48.608L132.924 48.176ZM122.604 47.312C122.604 49.744 123.5 51.488 125.292 52.544C128.204 49.664 131.02 46.944 133.74 44.384L135.372 37.328C134.668 35.856 134.012 34.784 133.404 34.112C132.828 33.408 132.204 32.832 131.532 32.384C128.78 33.504 126.604 35.44 125.004 38.192C123.404 40.912 122.604 43.952 122.604 47.312ZM153.45 29.696C156.266 30.432 158.25 31.776 159.402 33.728C160.554 35.648 161.018 37.936 160.794 40.592C155.418 43.152 150.298 44.944 145.434 45.968C145.626 47.76 146.17 49.248 147.066 50.432C147.962 51.584 149.37 52.512 151.29 53.216C154.746 51.968 157.29 50.576 158.922 49.04C159.562 49.04 159.978 49.184 160.17 49.472C160.362 49.76 160.426 50.288 160.362 51.056C159.722 51.92 158.394 52.88 156.378 53.936C154.362 54.992 152.618 55.68 151.146 56C147.978 55.296 145.61 53.888 144.042 51.776C142.474 49.632 141.722 47.072 141.786 44.096C141.818 42.816 142.122 41.232 142.698 39.344C145.45 34.704 149.034 31.488 153.45 29.696ZM145.29 43.184V43.568C149.322 42.544 153.386 41.12 157.482 39.296C157.482 37.472 157.226 36.032 156.714 34.976C156.234 33.92 155.258 33.024 153.786 32.288L153.114 32.432C151.002 33.456 149.178 35.056 147.642 37.232C146.138 39.408 145.354 41.392 145.29 43.184Z" fill="black"/>
</svg>
