<svg width="288" height="63" viewBox="0 0 288 63" fill="none" xmlns="http://www.w3.org/2000/svg">
<path d="M9.888 37.328C16.416 36.784 19.872 36.48 20.256 36.416C20.544 36.832 20.64 37.424 20.544 38.192C20.448 38.96 20.176 39.696 19.728 40.4C15.12 40.08 11.696 39.968 9.456 40.064L6.096 52.784C10.096 52.272 14.544 51.536 19.44 50.576C20.112 50.896 20.432 51.456 20.4 52.256C20.368 53.056 20.112 53.84 19.632 54.608L5.664 56C3.232 55.328 2 54.272 1.968 52.832C4.688 45.696 6.624 38.88 7.776 32.384L8.688 24.656C8.24 24.368 7.504 24.192 6.48 24.128C5.904 23.072 5.904 22.256 6.48 21.68C11.664 21.168 17.92 20.96 25.248 21.056C25.888 21.536 26.064 22.384 25.776 23.6C25.488 24.816 24.912 25.776 24.048 26.48L21.024 24.512C18.144 24.064 15.36 23.984 12.672 24.272L11.28 29.504L9.888 37.328ZM30.9154 37.376L31.3474 37.664C34.0354 34.016 37.0754 31.488 40.4674 30.08C42.1954 30.24 43.5714 30.912 44.5954 32.096C45.6514 33.28 46.3074 34.576 46.5634 35.984L44.8354 40.256C44.2274 45.568 43.7794 50.816 43.4914 56C41.5394 56.224 40.1314 55.824 39.2674 54.8C39.9394 50.384 41.0274 44.176 42.5314 36.176C42.3394 34.864 41.6674 33.968 40.5154 33.488C37.4434 34.832 34.4034 37.392 31.3954 41.168C30.6914 45.712 29.8594 50.656 28.8994 56C26.8514 56.192 25.4754 55.808 24.7714 54.848C26.5634 48.896 27.9714 43.328 28.9954 38.144L27.9874 31.28C29.3314 30.032 30.9154 29.536 32.7394 29.792C32.8994 30.56 32.7234 32.304 32.2114 35.024L30.9154 37.376ZM63.3154 48.128L56.9794 55.376C54.5154 55.344 52.6274 54.624 51.3154 53.216C50.0034 51.808 49.3314 49.856 49.2994 47.36C49.2674 44.832 49.8434 42.208 51.0274 39.488C52.2114 36.736 53.7954 34.48 55.7794 32.72C57.7634 30.96 59.7154 30.08 61.6354 30.08C63.5554 30.08 65.1554 31.456 66.4354 34.208C66.8194 32.416 67.1074 31.04 67.2994 30.08L67.5394 18.224C68.7554 17.552 69.6994 17.152 70.3714 17.024C71.0754 16.896 71.8594 17.024 72.7234 17.408L69.9394 28.16C68.6914 37.536 67.3154 46.816 65.8114 56C63.6994 56.192 62.3234 55.808 61.6834 54.848L63.8434 48.608L63.3154 48.128ZM52.9474 47.312C52.9474 49.744 53.8434 51.488 55.6354 52.544C58.5474 49.664 61.3634 46.944 64.0834 44.384L65.7154 37.328C65.0114 35.856 64.3554 34.784 63.7474 34.112C63.1714 33.408 62.5474 32.832 61.8754 32.384C59.1234 33.504 56.9474 35.44 55.3474 38.192C53.7474 40.912 52.9474 43.952 52.9474 47.312ZM86.3033 44.672V44.576C87.3593 38.88 88.4313 33.952 89.5193 29.792C91.7913 29.792 93.3113 30.304 94.0793 31.328L90.4793 38.384C89.7753 42.96 89.2153 48.832 88.7993 56C86.8473 56.224 85.4233 55.824 84.5273 54.8L86.8793 48.512L86.3033 48.032C84.3833 50.528 82.0153 53.184 79.1993 56C74.8153 55.392 72.2073 53.888 71.3753 51.488L73.8233 43.184C74.3033 37.744 74.5113 33.28 74.4473 29.792C75.4393 29.664 76.2393 29.712 76.8473 29.936C77.4553 30.128 78.1433 30.576 78.9113 31.28C78.3993 35.824 77.1993 42.288 75.3113 50.672C75.7273 51.664 76.8473 52.432 78.6713 52.976C81.8713 50.096 84.4153 47.328 86.3033 44.672ZM101.374 37.376L101.95 37.76C103.71 35.456 105.806 32.896 108.238 30.08C109.55 30.272 110.622 30.912 111.454 32C112.286 33.056 112.702 34.304 112.702 35.744C111.07 36.96 109.63 37.232 108.382 36.56C108.478 35.088 108.174 34.208 107.47 33.92C105.902 35.712 104.062 37.984 101.95 40.736C101.086 46.432 100.222 51.52 99.3581 56C97.2781 56.192 95.9181 55.808 95.2781 54.848C97.1981 48.224 98.5901 42.656 99.4541 38.144L98.4941 31.28C99.1981 30.576 99.9021 30.112 100.606 29.888C101.31 29.664 102.174 29.632 103.198 29.792C103.358 30.56 103.182 32.304 102.67 35.024L101.374 37.376ZM127.814 48.176L121.526 55.376C119.062 55.344 117.174 54.624 115.862 53.216C114.55 51.808 113.878 49.856 113.846 47.36C113.814 44.832 114.39 42.208 115.574 39.488C116.758 36.736 118.342 34.48 120.326 32.72C122.31 30.96 124.326 30.08 126.374 30.08C128.262 30.912 129.846 32.464 131.126 34.736L131.174 34.592C131.27 32.48 131.526 30.88 131.942 29.792C134.214 29.792 135.734 30.304 136.502 31.328L132.902 38.384C132.326 42.096 131.718 47.968 131.078 56C128.902 56.256 127.27 55.792 126.182 54.608L128.342 48.608L127.814 48.176ZM117.494 47.312C117.494 49.744 118.39 51.488 120.182 52.544C123.094 49.664 125.91 46.944 128.63 44.384L130.262 37.328C129.75 36.24 129.206 35.36 128.63 34.688C128.054 34.016 127.238 33.328 126.182 32.624C123.462 33.744 121.334 35.632 119.798 38.288C118.262 40.912 117.494 43.92 117.494 47.312ZM143.509 37.376L143.941 37.664C146.629 34.016 149.669 31.488 153.061 30.08C154.789 30.24 156.165 30.912 157.189 32.096C158.245 33.28 158.901 34.576 159.157 35.984L157.429 40.256C156.821 45.568 156.373 50.816 156.085 56C154.133 56.224 152.725 55.824 151.861 54.8C152.533 50.384 153.621 44.176 155.125 36.176C154.933 34.864 154.261 33.968 153.109 33.488C150.037 34.832 146.997 37.392 143.989 41.168C143.285 45.712 142.453 50.656 141.493 56C139.445 56.192 138.069 55.808 137.365 54.848C139.157 48.896 140.565 43.328 141.589 38.144L140.581 31.28C141.925 30.032 143.509 29.536 145.333 29.792C145.493 30.56 145.317 32.304 144.805 35.024L143.509 37.376ZM175.141 30.08C176.933 30.368 178.437 31.232 179.653 32.672C180.869 34.112 181.541 35.68 181.669 37.376C181.061 37.888 180.357 38.208 179.557 38.336C178.757 38.464 178.101 38.368 177.589 38.048C177.525 36.672 177.285 35.616 176.869 34.88C176.485 34.112 175.829 33.36 174.901 32.624L174.037 32.72C171.797 33.808 169.909 35.408 168.373 37.52C166.869 39.6 166.085 41.536 166.021 43.328C165.861 45.888 166.165 47.952 166.933 49.52C167.733 51.088 169.269 52.336 171.541 53.264C173.045 52.752 174.549 52.096 176.053 51.296C177.589 50.464 178.741 49.648 179.509 48.848C180.181 48.816 180.613 48.976 180.805 49.328C180.997 49.648 181.061 50.144 180.997 50.816C180.069 51.84 178.565 52.896 176.485 53.984C174.437 55.072 172.629 55.744 171.061 56C167.925 55.2 165.637 53.728 164.197 51.584C162.757 49.408 162.117 46.928 162.277 44.144C162.373 42.544 162.677 41.024 163.189 39.584C164.533 37.376 166.229 35.376 168.277 33.584C170.357 31.792 172.645 30.624 175.141 30.08ZM196.856 29.696C199.672 30.432 201.656 31.776 202.808 33.728C203.96 35.648 204.424 37.936 204.2 40.592C198.824 43.152 193.704 44.944 188.84 45.968C189.032 47.76 189.576 49.248 190.472 50.432C191.368 51.584 192.776 52.512 194.696 53.216C198.152 51.968 200.696 50.576 202.328 49.04C202.968 49.04 203.384 49.184 203.576 49.472C203.768 49.76 203.832 50.288 203.768 51.056C203.128 51.92 201.8 52.88 199.784 53.936C197.768 54.992 196.024 55.68 194.552 56C191.384 55.296 189.016 53.888 187.448 51.776C185.88 49.632 185.128 47.072 185.192 44.096C185.224 42.816 185.528 41.232 186.104 39.344C188.856 34.704 192.44 31.488 196.856 29.696ZM188.696 43.184V43.568C192.728 42.544 196.792 41.12 200.888 39.296C200.888 37.472 200.632 36.032 200.12 34.976C199.64 33.92 198.664 33.024 197.192 32.288L196.52 32.432C194.408 33.456 192.584 35.056 191.048 37.232C189.544 39.408 188.76 41.392 188.696 43.184Z" fill="black"/>
</svg>
