<svg width="195" height="69" viewBox="0 0 195 69" fill="none" xmlns="http://www.w3.org/2000/svg">
<path d="M6.576 21.92C7.664 21.248 8.56 20.848 9.264 20.72C9.968 20.592 10.752 20.736 11.616 21.152L7.872 38.048L4.704 52.928C8.672 52.448 13.296 51.696 18.576 50.672C19.216 51.024 19.52 51.584 19.488 52.352C19.456 53.088 19.216 53.808 18.768 54.512L4.272 56C1.84 55.392 0.608 54.384 0.576 52.976C2.464 47.984 4.256 41.04 5.952 32.144L6.576 21.92ZM22.7659 44.96C22.7659 42.88 23.4379 40.608 24.7819 38.144C26.1259 35.68 27.7579 33.616 29.6779 31.952C31.6299 30.288 33.4059 29.456 35.0059 29.456C36.6059 29.456 38.3339 30.944 40.1899 33.92C42.0459 36.896 42.9899 39.424 43.0219 41.504C43.0859 43.584 42.4139 45.76 41.0059 48.032C39.6299 50.272 37.9339 52.16 35.9179 53.696C33.9339 55.232 32.1419 56 30.5419 56C28.9419 56 27.2459 54.88 25.4539 52.64C23.6619 50.4 22.7659 47.84 22.7659 44.96ZM34.6219 32.144C32.0619 33.584 30.1259 35.28 28.8139 37.232C27.5019 39.152 26.5579 41.424 25.9819 44.048C26.1099 46.192 26.5259 48.016 27.2299 49.52C27.9339 51.024 29.0219 52.4 30.4939 53.648C33.3419 52.432 35.5019 50.896 36.9739 49.04C38.4779 47.184 39.5019 44.848 40.0459 42.032C39.7579 40.336 39.1339 38.576 38.1739 36.752C37.2139 34.928 36.0299 33.392 34.6219 32.144ZM60.7039 44.576C62.0159 37.216 63.1199 32.288 64.0159 29.792C66.2879 29.792 67.7919 30.304 68.5279 31.328L64.5439 39.344C63.7759 42.96 62.8639 48.08 61.8079 54.704C60.7839 61.328 60.1599 65.344 59.9359 66.752C59.3919 67.52 58.4639 68.096 57.1519 68.48C55.8719 68.864 54.5919 69.024 53.3119 68.96C51.1359 67.84 49.3919 66.432 48.0799 64.736C46.7999 63.072 46.0479 61.456 45.8239 59.888C46.3679 59.024 46.9919 58.432 47.6959 58.112C48.4319 57.792 49.1039 57.824 49.7119 58.208C49.9679 61.44 51.4399 64.064 54.1279 66.08C55.0239 66.208 55.6639 66.096 56.0479 65.744C57.1679 62.16 58.1439 57.696 58.9759 52.352L60.8479 48.944L60.2719 48.416C59.4399 49.44 57.6319 51.232 54.8479 53.792C51.9679 53.312 49.8719 52.656 48.5599 51.824C47.2479 50.96 46.4159 49.904 46.0639 48.656L48.4159 41.792C48.6079 40.192 48.7359 38.096 48.7999 35.504C48.8959 32.88 48.8959 30.976 48.7999 29.792C49.7919 29.664 50.5919 29.712 51.1999 29.936C51.8399 30.128 52.5279 30.576 53.2639 31.28C52.8159 34.448 52.3999 36.992 52.0159 38.912C51.6319 40.8 50.9279 43.76 49.9039 47.792C50.2559 48.624 50.7199 49.264 51.2959 49.712C51.9039 50.16 52.8799 50.576 54.2239 50.96C57.2319 48.688 59.3919 46.56 60.7039 44.576ZM82.6268 48.176L76.3388 55.376C73.8748 55.344 71.9868 54.624 70.6748 53.216C69.3628 51.808 68.6908 49.856 68.6588 47.36C68.6268 44.832 69.2028 42.208 70.3867 39.488C71.5708 36.736 73.1548 34.48 75.1388 32.72C77.1228 30.96 79.1388 30.08 81.1868 30.08C83.0748 30.912 84.6588 32.464 85.9388 34.736L85.9868 34.592C86.0828 32.48 86.3388 30.88 86.7548 29.792C89.0268 29.792 90.5468 30.304 91.3148 31.328L87.7148 38.384C87.1388 42.096 86.5308 47.968 85.8908 56C83.7148 56.256 82.0828 55.792 80.9948 54.608L83.1548 48.608L82.6268 48.176ZM72.3068 47.312C72.3068 49.744 73.2028 51.488 74.9948 52.544C77.9068 49.664 80.7228 46.944 83.4428 44.384L85.0748 37.328C84.5628 36.24 84.0188 35.36 83.4428 34.688C82.8668 34.016 82.0508 33.328 80.9948 32.624C78.2748 33.744 76.1468 35.632 74.6108 38.288C73.0748 40.912 72.3068 43.92 72.3068 47.312ZM98.1776 30.08L98.7536 18.224C99.8736 17.552 100.77 17.152 101.442 17.024C102.146 16.896 102.914 17.024 103.746 17.408L100.962 28.16C100.162 35.296 99.0896 44.576 97.7456 56C95.4096 56.224 93.8896 55.728 93.1856 54.512C95.3616 46 97.0256 37.856 98.1776 30.08ZM121.367 32.384L113.543 32.624C113.319 34.768 112.935 38.08 112.391 42.56C111.879 47.008 111.495 50.416 111.239 52.784C113.735 52.08 115.799 51.152 117.431 50C118.167 49.968 118.631 50.096 118.823 50.384C119.015 50.672 119.079 51.152 119.015 51.824C117.991 52.72 116.615 53.568 114.887 54.368C113.191 55.136 111.575 55.68 110.039 56C108.087 55.584 106.967 54.752 106.679 53.504C109.015 42.88 110.455 36.064 110.999 33.056L104.951 34.208C104.087 33.12 104.119 32 105.047 30.848L111.287 30.8L111.239 23.888C113.127 22.576 114.727 22.416 116.039 23.408L113.831 30.464L121.463 28.976C121.911 29.232 122.119 29.696 122.087 30.368C122.087 31.008 121.847 31.68 121.367 32.384ZM136.923 44.576C138.235 37.216 139.339 32.288 140.235 29.792C142.507 29.792 144.011 30.304 144.747 31.328L140.763 39.344C139.995 42.96 139.083 48.08 138.027 54.704C137.003 61.328 136.379 65.344 136.155 66.752C135.611 67.52 134.683 68.096 133.371 68.48C132.091 68.864 130.811 69.024 129.531 68.96C127.355 67.84 125.611 66.432 124.299 64.736C123.019 63.072 122.267 61.456 122.043 59.888C122.587 59.024 123.211 58.432 123.915 58.112C124.651 57.792 125.323 57.824 125.931 58.208C126.187 61.44 127.659 64.064 130.347 66.08C131.243 66.208 131.883 66.096 132.267 65.744C133.387 62.16 134.363 57.696 135.195 52.352L137.067 48.944L136.491 48.416C135.659 49.44 133.851 51.232 131.067 53.792C128.187 53.312 126.091 52.656 124.779 51.824C123.467 50.96 122.635 49.904 122.283 48.656L124.635 41.792C124.827 40.192 124.955 38.096 125.019 35.504C125.115 32.88 125.115 30.976 125.019 29.792C126.011 29.664 126.811 29.712 127.419 29.936C128.059 30.128 128.747 30.576 129.483 31.28C129.035 34.448 128.619 36.992 128.235 38.912C127.851 40.8 127.147 43.76 126.123 47.792C126.475 48.624 126.939 49.264 127.515 49.712C128.123 50.16 129.099 50.576 130.443 50.96C133.451 48.688 135.611 46.56 136.923 44.576Z" fill="black"/>
</svg>
