<svg width="90" height="90" viewBox="0 0 84 90" fill="none" xmlns="http://www.w3.org/2000/svg">
<path d="M67 38.9414L15.8125 38.9414L15.8125 53.3906C15.8125 57.8438 16.7969 61.7812 18.7656 65.2031C20.7344 68.625 23.5352 71.2617 27.168 73.1133C30.8008 74.9883 34.9727 75.9375 39.6836 75.9609H42.9531C47.7812 75.9609 52.0117 75.0234 55.6445 73.1484C59.2773 71.2969 62.0664 68.6367 64.0117 65.168C65.957 61.7227 66.9531 57.7031 67 53.1094V38.9414ZM21.3672 45.6914L61.4805 45.6914V52.793C61.4805 57.9961 59.8633 62.0391 56.6289 64.9219C53.3945 67.8281 48.7891 69.2812 42.8125 69.2812H39.8242C34.0117 69.2812 29.5 67.9102 26.2891 65.168C23.0547 62.4492 21.4141 58.582 21.3672 53.5664V45.6914Z" fill="black"/>
<path d="M67 39.0586L15.8125 39.0586L15.8125 22.3242C15.8125 16.7695 16.9609 12.5977 19.2578 9.80859C21.5547 6.99609 24.9531 5.58984 29.4531 5.58984C31.8438 5.58984 33.9648 6.26953 35.8164 7.62891C37.6445 8.98828 39.0625 10.8398 40.0703 13.1836C40.8438 10.418 42.3203 8.23828 44.5 6.64453C46.6563 5.02734 49.2344 4.21875 52.2344 4.21875C56.8281 4.21875 60.4375 5.70703 63.0625 8.68359C65.6875 11.6602 67 15.8672 67 21.3047V39.0586ZM43.0586 32.3086L61.4805 32.3086L61.4805 21.1641C61.4805 18.0234 60.6719 15.5508 59.0547 13.7461C57.4141 11.918 55.1641 11.0039 52.3047 11.0039C46.1406 11.0039 43.0586 14.3555 43.0586 21.0586L43.0586 32.3086ZM37.6445 32.3086L37.6445 22.1133C37.6445 19.1602 36.9063 16.8047 35.4297 15.0469C33.9531 13.2656 31.9492 12.375 29.418 12.375C26.6055 12.375 24.5664 13.1953 23.3008 14.8359C22.0117 16.4766 21.3672 18.9727 21.3672 22.3242V32.3086L37.6445 32.3086Z" fill="#3366ff"/>
<circle cx="52" cy="22" r="4" fill="black"/>
<circle cx="30.5" cy="24.5" r="2.5" fill="black"/>
<path d="M40.8535 45.5488L43.4707 37.4336H45.3164L41.5273 48H40.1504L36.3223 37.4336H38.168L40.8535 45.5488Z" fill="#3366ff"/>
<path d="M40.8535 45.5488L39.9041 45.863L40.8658 48.7688L41.8052 45.8558L40.8535 45.5488ZM43.4707 37.4336V36.4336H42.7425L42.519 37.1267L43.4707 37.4336ZM45.3164 37.4336L46.2577 37.7711L46.7374 36.4336H45.3164V37.4336ZM41.5273 48V49H42.2311L42.4687 48.3375L41.5273 48ZM40.1504 48L39.2102 48.3406L39.4491 49H40.1504V48ZM36.3223 37.4336V36.4336H34.8964L35.3821 37.7742L36.3223 37.4336ZM38.168 37.4336L39.1173 37.1194L38.8904 36.4336H38.168V37.4336ZM41.8052 45.8558L44.4224 37.7405L42.519 37.1267L39.9018 45.2419L41.8052 45.8558ZM43.4707 38.4336H45.3164V36.4336H43.4707V38.4336ZM44.3751 37.096L40.586 47.6625L42.4687 48.3375L46.2577 37.7711L44.3751 37.096ZM41.5273 47H40.1504V49H41.5273V47ZM41.0906 47.6594L37.2625 37.093L35.3821 37.7742L39.2102 48.3406L41.0906 47.6594ZM36.3223 38.4336H38.168V36.4336H36.3223V38.4336ZM37.2186 37.7478L39.9041 45.863L41.8029 45.2347L39.1173 37.1194L37.2186 37.7478Z" fill="black"/>
</svg>
